<svg width="23" height="22" viewBox="0 0 23 22" fill="none" xmlns="http://www.w3.org/2000/svg">
<rect width="22" height="22" rx="2.46154" transform="matrix(-1 0 0 1 22.8462 0)" fill="#343A40"/>
<path d="M15.2073 6.7222H12.9156L12.7246 6.37845C12.6482 6.22567 12.4955 6.11108 12.3236 6.11108H10.1274C9.95554 6.11108 9.80276 6.22567 9.72637 6.37845L9.5545 6.7222H7.26283C7.09096 6.7222 6.95728 6.87497 6.95728 7.02775V7.63886C6.95728 7.81074 7.09096 7.94442 7.26283 7.94442H15.2073C15.3601 7.94442 15.5128 7.81074 15.5128 7.63886V7.02775C15.5128 6.87497 15.3601 6.7222 15.2073 6.7222ZM7.96943 15.0295C7.98853 15.526 8.38957 15.8889 8.88609 15.8889H13.5649C14.0614 15.8889 14.4625 15.526 14.4816 15.0295L14.9017 8.55553H7.56839L7.96943 15.0295Z" fill="#F8F9FA"/>
</svg>
